<?xml version="1.0" standalone="no"?>
<!DOCTYPE svg PUBLIC "-//W3C//DTD SVG 20010904//EN"
 "http://www.w3.org/TR/2001/REC-SVG-20010904/DTD/svg10.dtd">
<svg version="1.0" xmlns="http://www.w3.org/2000/svg"
 width="292.000000pt" height="292.000000pt" viewBox="0 0 292.000000 292.000000"
 preserveAspectRatio="xMidYMid meet">
<metadata>
Created by potrace 1.11, written by Peter Selinger 2001-2013
</metadata>
<g transform="translate(0.000000,292.000000) scale(0.100000,-0.100000)"
fill="#000000" stroke="none">
<path d="M649 2310 l-30 -29 3 -508 c3 -502 3 -509 25 -549 34 -63 66 -97 125
-129 l53 -30 515 0 c486 0 517 1 550 19 101 55 156 131 166 235 l7 61 56 0
c265 1 470 181 497 439 24 230 -144 458 -373 506 -56 12 -201 15 -816 15
l-749 0 -29 -30z m1617 -245 c30 -19 60 -49 79 -80 27 -43 30 -57 30 -125 0
-68 -3 -82 -30 -126 -46 -74 -108 -108 -207 -113 l-78 -3 0 242 0 242 78 -3
c66 -3 86 -9 128 -34z"/>
<path d="M304 859 c15 -106 86 -201 186 -248 l55 -26 875 0 875 0 55 26 c101
48 169 139 186 247 l7 42 -1123 0 -1122 0 6 -41z"/>
</g>
</svg>
