<svg version="1" xmlns="http://www.w3.org/2000/svg" width="289.333" height="289.333" viewBox="0 0 217.000000 217.000000"><path d="M32.2 29.3C30 31.6 30 31.7 30 78.6c0 45 .1 47.1 2.1 51.4 2.7 6 7.4 10.7 13.4 13.6l5 2.4h45.9c33 0 47-.3 50-1.2 5.5-1.6 14.8-10.9 16.4-16.4.7-2.3 1.2-6 1.2-8.3V116h7.4c18 0 32.7-9.3 40.9-25.9 3.1-6.3 3.2-7 3.2-18.6 0-11.6-.1-12.3-3.2-18.6-6-12.1-15.2-20.2-27.4-24-5.7-1.8-10.2-1.9-78.3-1.9H34.3l-2.1 2.3zm146.1 20.8c4.9 1.3 11.5 7.3 13.8 12.4 4 8.6 1.6 19-5.9 25.7-4.6 4.2-9.4 5.8-16.9 5.8H164V49h5.3c2.8 0 6.9.5 9 1.1zM.4 165.2c1.6 10.1 8.2 18.9 17.5 23.2 4.6 2.1 5.3 2.1 86.6 2.1h82l5.7-2.8c8.9-4.4 14.8-12.4 16.4-22.5l.7-4.2H-.3l.7 4.2z"/></svg>